<svg xmlns="http://www.w3.org/2000/svg" xmlns:xlink="http://www.w3.org/1999/xlink" version="1.1" width="528px" height="384px" viewBox="0 0 3960 2880">
	<desc>Stata Graph - Graph</desc>
	<rect x="0" y="0" width="3960" height="2880" style="fill:#FFFFFF;stroke:none"/>
	<rect x="0.00" y="0.00" width="3959.88" height="2880.00" style="fill:#FFFFFF"/>
	<rect x="2.88" y="2.88" width="3954.12" height="2874.24" style="fill:none;stroke:#FFFFFF;stroke-width:5.76"/>
	<rect x="348.64" y="103.74" width="3507.50" height="2427.61" style="fill:none;stroke:#000000;stroke-width:5.76"/>
	<line x1="1663.20" y1="2534.23" x2="1663.20" y2="2476.69" style="stroke:#6E8E84;stroke-width:4.32"/>
	<line x1="1663.20" y1="2447.85" x2="1663.20" y2="2390.31" style="stroke:#6E8E84;stroke-width:4.32"/>
	<line x1="1663.20" y1="2361.47" x2="1663.20" y2="2303.93" style="stroke:#6E8E84;stroke-width:4.32"/>
	<line x1="1663.20" y1="2275.09" x2="1663.20" y2="2217.55" style="stroke:#6E8E84;stroke-width:4.32"/>
	<line x1="1663.20" y1="2188.71" x2="1663.20" y2="2131.17" style="stroke:#6E8E84;stroke-width:4.32"/>
	<line x1="1663.20" y1="2102.33" x2="1663.20" y2="2044.66" style="stroke:#6E8E84;stroke-width:4.32"/>
	<line x1="1663.20" y1="2015.95" x2="1663.20" y2="1958.28" style="stroke:#6E8E84;stroke-width:4.32"/>
	<line x1="1663.20" y1="1929.57" x2="1663.20" y2="1871.90" style="stroke:#6E8E84;stroke-width:4.32"/>
	<line x1="1663.20" y1="1843.07" x2="1663.20" y2="1785.52" style="stroke:#6E8E84;stroke-width:4.32"/>
	<line x1="1663.20" y1="1756.69" x2="1663.20" y2="1699.14" style="stroke:#6E8E84;stroke-width:4.32"/>
	<line x1="1663.20" y1="1670.31" x2="1663.20" y2="1612.76" style="stroke:#6E8E84;stroke-width:4.32"/>
	<line x1="1663.20" y1="1583.93" x2="1663.20" y2="1526.38" style="stroke:#6E8E84;stroke-width:4.32"/>
	<line x1="1663.20" y1="1497.55" x2="1663.20" y2="1440.00" style="stroke:#6E8E84;stroke-width:4.32"/>
	<line x1="1663.20" y1="1411.17" x2="1663.20" y2="1353.62" style="stroke:#6E8E84;stroke-width:4.32"/>
	<line x1="1663.20" y1="1324.79" x2="1663.20" y2="1267.24" style="stroke:#6E8E84;stroke-width:4.32"/>
	<line x1="1663.20" y1="1238.40" x2="1663.20" y2="1180.86" style="stroke:#6E8E84;stroke-width:4.32"/>
	<line x1="1663.20" y1="1152.02" x2="1663.20" y2="1094.36" style="stroke:#6E8E84;stroke-width:4.32"/>
	<line x1="1663.20" y1="1065.64" x2="1663.20" y2="1007.98" style="stroke:#6E8E84;stroke-width:4.32"/>
	<line x1="1663.20" y1="979.14" x2="1663.20" y2="921.60" style="stroke:#6E8E84;stroke-width:4.32"/>
	<line x1="1663.20" y1="892.76" x2="1663.20" y2="835.21" style="stroke:#6E8E84;stroke-width:4.32"/>
	<line x1="1663.20" y1="806.38" x2="1663.20" y2="748.83" style="stroke:#6E8E84;stroke-width:4.32"/>
	<line x1="1663.20" y1="720.00" x2="1663.20" y2="662.45" style="stroke:#6E8E84;stroke-width:4.32"/>
	<line x1="1663.20" y1="633.62" x2="1663.20" y2="576.07" style="stroke:#6E8E84;stroke-width:4.32"/>
	<line x1="1663.20" y1="547.24" x2="1663.20" y2="489.69" style="stroke:#6E8E84;stroke-width:4.32"/>
	<line x1="1663.20" y1="460.86" x2="1663.20" y2="403.31" style="stroke:#6E8E84;stroke-width:4.32"/>
	<line x1="1663.20" y1="374.48" x2="1663.20" y2="316.93" style="stroke:#6E8E84;stroke-width:4.32"/>
	<line x1="1663.20" y1="288.10" x2="1663.20" y2="230.55" style="stroke:#6E8E84;stroke-width:4.32"/>
	<line x1="1663.20" y1="201.72" x2="1663.20" y2="144.05" style="stroke:#6E8E84;stroke-width:4.32"/>
	<line x1="1663.20" y1="115.34" x2="1663.20" y2="100.86" style="stroke:#6E8E84;stroke-width:4.32"/>
	<line x1="345.76" y1="1379.86" x2="3859.02" y2="1379.86" style="stroke:#658397;stroke-width:8.64"/>
	<line x1="492.15" y1="2205.29" x2="492.15" y2="2147.75" style="stroke:#606060;stroke-width:8.64"/>
	<line x1="492.15" y1="2118.91" x2="492.15" y2="2061.37" style="stroke:#606060;stroke-width:8.64"/>
	<line x1="492.15" y1="2032.53" x2="492.15" y2="1974.99" style="stroke:#606060;stroke-width:8.64"/>
	<line x1="492.15" y1="1946.15" x2="492.15" y2="1888.61" style="stroke:#606060;stroke-width:8.64"/>
	<line x1="492.15" y1="1859.77" x2="492.15" y2="1802.23" style="stroke:#606060;stroke-width:8.64"/>
	<line x1="492.15" y1="1773.39" x2="492.15" y2="1715.72" style="stroke:#606060;stroke-width:8.64"/>
	<line x1="492.15" y1="1687.01" x2="492.15" y2="1629.34" style="stroke:#606060;stroke-width:8.64"/>
	<line x1="492.15" y1="1600.63" x2="492.15" y2="1542.96" style="stroke:#606060;stroke-width:8.64"/>
	<line x1="492.15" y1="1514.13" x2="492.15" y2="1456.58" style="stroke:#606060;stroke-width:8.64"/>
	<line x1="492.15" y1="1427.75" x2="492.15" y2="1370.20" style="stroke:#606060;stroke-width:8.64"/>
	<line x1="492.15" y1="1341.37" x2="492.15" y2="1283.82" style="stroke:#606060;stroke-width:8.64"/>
	<line x1="492.15" y1="1254.99" x2="492.15" y2="1197.94" style="stroke:#606060;stroke-width:8.64"/>
	<line x1="470.13" y1="1197.94" x2="514.18" y2="1197.94" style="stroke:#606060;stroke-width:8.64"/>
	<line x1="470.13" y1="2205.29" x2="514.18" y2="2205.29" style="stroke:#606060;stroke-width:8.64"/>
	<line x1="784.95" y1="1936.25" x2="784.95" y2="1878.71" style="stroke:#606060;stroke-width:8.64"/>
	<line x1="784.95" y1="1849.87" x2="784.95" y2="1792.33" style="stroke:#606060;stroke-width:8.64"/>
	<line x1="784.95" y1="1763.49" x2="784.95" y2="1705.95" style="stroke:#606060;stroke-width:8.64"/>
	<line x1="784.95" y1="1677.11" x2="784.95" y2="1619.57" style="stroke:#606060;stroke-width:8.64"/>
	<line x1="784.95" y1="1590.73" x2="784.95" y2="1533.19" style="stroke:#606060;stroke-width:8.64"/>
	<line x1="784.95" y1="1504.35" x2="784.95" y2="1446.68" style="stroke:#606060;stroke-width:8.64"/>
	<line x1="784.95" y1="1417.97" x2="784.95" y2="1360.30" style="stroke:#606060;stroke-width:8.64"/>
	<line x1="784.95" y1="1331.59" x2="784.95" y2="1273.92" style="stroke:#606060;stroke-width:8.64"/>
	<line x1="784.95" y1="1245.09" x2="784.95" y2="1191.75" style="stroke:#606060;stroke-width:8.64"/>
	<line x1="762.92" y1="1191.75" x2="806.97" y2="1191.75" style="stroke:#606060;stroke-width:8.64"/>
	<line x1="762.92" y1="1936.25" x2="806.97" y2="1936.25" style="stroke:#606060;stroke-width:8.64"/>
	<line x1="1077.74" y1="1652.36" x2="1077.74" y2="1594.82" style="stroke:#606060;stroke-width:8.64"/>
	<line x1="1077.74" y1="1565.98" x2="1077.74" y2="1508.44" style="stroke:#606060;stroke-width:8.64"/>
	<line x1="1077.74" y1="1479.60" x2="1077.74" y2="1422.06" style="stroke:#606060;stroke-width:8.64"/>
	<line x1="1077.74" y1="1393.22" x2="1077.74" y2="1335.55" style="stroke:#606060;stroke-width:8.64"/>
	<line x1="1077.74" y1="1306.84" x2="1077.74" y2="1249.17" style="stroke:#606060;stroke-width:8.64"/>
	<line x1="1077.74" y1="1220.46" x2="1077.74" y2="1183.09" style="stroke:#606060;stroke-width:8.64"/>
	<line x1="1055.71" y1="1183.09" x2="1099.77" y2="1183.09" style="stroke:#606060;stroke-width:8.64"/>
	<line x1="1055.71" y1="1652.36" x2="1099.77" y2="1652.36" style="stroke:#606060;stroke-width:8.64"/>
	<line x1="1370.53" y1="1514.87" x2="1370.53" y2="1457.33" style="stroke:#606060;stroke-width:8.64"/>
	<line x1="1370.53" y1="1428.49" x2="1370.53" y2="1370.95" style="stroke:#606060;stroke-width:8.64"/>
	<line x1="1370.53" y1="1342.11" x2="1370.53" y2="1284.44" style="stroke:#606060;stroke-width:8.64"/>
	<line x1="1348.50" y1="1271.45" x2="1392.56" y2="1271.45" style="stroke:#606060;stroke-width:8.64"/>
	<line x1="1348.50" y1="1514.87" x2="1392.56" y2="1514.87" style="stroke:#606060;stroke-width:8.64"/>
	<line x1="1663.20" y1="1415.99" x2="1663.20" y2="1358.45" style="stroke:#606060;stroke-width:8.64"/>
	<line x1="1663.20" y1="1329.61" x2="1663.20" y2="1272.07" style="stroke:#606060;stroke-width:8.64"/>
	<line x1="1663.20" y1="1243.23" x2="1663.20" y2="1185.56" style="stroke:#606060;stroke-width:8.64"/>
	<line x1="1641.17" y1="1185.31" x2="1685.23" y2="1185.31" style="stroke:#606060;stroke-width:8.64"/>
	<line x1="1641.17" y1="1415.99" x2="1685.23" y2="1415.99" style="stroke:#606060;stroke-width:8.64"/>
	<line x1="1955.99" y1="1440.12" x2="1955.99" y2="1382.58" style="stroke:#606060;stroke-width:8.64"/>
	<line x1="1955.99" y1="1353.74" x2="1955.99" y2="1296.07" style="stroke:#606060;stroke-width:8.64"/>
	<line x1="1955.99" y1="1267.36" x2="1955.99" y2="1209.69" style="stroke:#606060;stroke-width:8.64"/>
	<line x1="1955.99" y1="1180.98" x2="1955.99" y2="1123.31" style="stroke:#606060;stroke-width:8.64"/>
	<line x1="1955.99" y1="1094.48" x2="1955.99" y2="1036.93" style="stroke:#606060;stroke-width:8.64"/>
	<line x1="1933.97" y1="1033.72" x2="1978.02" y2="1033.72" style="stroke:#606060;stroke-width:8.64"/>
	<line x1="1933.97" y1="1440.12" x2="1978.02" y2="1440.12" style="stroke:#606060;stroke-width:8.64"/>
	<line x1="2248.79" y1="1575.26" x2="2248.79" y2="1517.72" style="stroke:#606060;stroke-width:8.64"/>
	<line x1="2248.79" y1="1488.88" x2="2248.79" y2="1431.34" style="stroke:#606060;stroke-width:8.64"/>
	<line x1="2248.79" y1="1402.50" x2="2248.79" y2="1344.96" style="stroke:#606060;stroke-width:8.64"/>
	<line x1="2248.79" y1="1316.12" x2="2248.79" y2="1258.58" style="stroke:#606060;stroke-width:8.64"/>
	<line x1="2248.79" y1="1229.74" x2="2248.79" y2="1172.20" style="stroke:#606060;stroke-width:8.64"/>
	<line x1="2248.79" y1="1143.36" x2="2248.79" y2="1094.36" style="stroke:#606060;stroke-width:8.64"/>
	<line x1="2226.76" y1="1094.36" x2="2270.81" y2="1094.36" style="stroke:#606060;stroke-width:8.64"/>
	<line x1="2226.76" y1="1575.26" x2="2270.81" y2="1575.26" style="stroke:#606060;stroke-width:8.64"/>
	<line x1="2541.58" y1="1513.39" x2="2541.58" y2="1455.84" style="stroke:#606060;stroke-width:8.64"/>
	<line x1="2541.58" y1="1427.01" x2="2541.58" y2="1369.46" style="stroke:#606060;stroke-width:8.64"/>
	<line x1="2541.58" y1="1340.63" x2="2541.58" y2="1283.08" style="stroke:#606060;stroke-width:8.64"/>
	<line x1="2541.58" y1="1254.25" x2="2541.58" y2="1196.70" style="stroke:#606060;stroke-width:8.64"/>
	<line x1="2541.58" y1="1167.87" x2="2541.58" y2="1110.20" style="stroke:#606060;stroke-width:8.64"/>
	<line x1="2541.58" y1="1081.49" x2="2541.58" y2="1023.82" style="stroke:#606060;stroke-width:8.64"/>
	<line x1="2541.58" y1="994.98" x2="2541.58" y2="942.63" style="stroke:#606060;stroke-width:8.64"/>
	<line x1="2519.55" y1="942.63" x2="2563.61" y2="942.63" style="stroke:#606060;stroke-width:8.64"/>
	<line x1="2519.55" y1="1513.39" x2="2563.61" y2="1513.39" style="stroke:#606060;stroke-width:8.64"/>
	<line x1="2834.37" y1="1439.01" x2="2834.37" y2="1381.46" style="stroke:#606060;stroke-width:8.64"/>
	<line x1="2834.37" y1="1352.63" x2="2834.37" y2="1295.08" style="stroke:#606060;stroke-width:8.64"/>
	<line x1="2834.37" y1="1266.25" x2="2834.37" y2="1208.70" style="stroke:#606060;stroke-width:8.64"/>
	<line x1="2834.37" y1="1179.87" x2="2834.37" y2="1122.20" style="stroke:#606060;stroke-width:8.64"/>
	<line x1="2834.37" y1="1093.49" x2="2834.37" y2="1035.82" style="stroke:#606060;stroke-width:8.64"/>
	<line x1="2834.37" y1="1006.99" x2="2834.37" y2="949.44" style="stroke:#606060;stroke-width:8.64"/>
	<line x1="2834.37" y1="920.61" x2="2834.37" y2="863.06" style="stroke:#606060;stroke-width:8.64"/>
	<line x1="2834.37" y1="834.22" x2="2834.37" y2="817.64" style="stroke:#606060;stroke-width:8.64"/>
	<line x1="2812.34" y1="817.64" x2="2856.40" y2="817.64" style="stroke:#606060;stroke-width:8.64"/>
	<line x1="2812.34" y1="1439.01" x2="2856.40" y2="1439.01" style="stroke:#606060;stroke-width:8.64"/>
	<line x1="3127.16" y1="1333.82" x2="3127.16" y2="1276.27" style="stroke:#606060;stroke-width:8.64"/>
	<line x1="3127.16" y1="1247.44" x2="3127.16" y2="1189.89" style="stroke:#606060;stroke-width:8.64"/>
	<line x1="3127.16" y1="1161.06" x2="3127.16" y2="1103.51" style="stroke:#606060;stroke-width:8.64"/>
	<line x1="3127.16" y1="1074.68" x2="3127.16" y2="1017.13" style="stroke:#606060;stroke-width:8.64"/>
	<line x1="3127.16" y1="988.30" x2="3127.16" y2="930.75" style="stroke:#606060;stroke-width:8.64"/>
	<line x1="3127.16" y1="901.92" x2="3127.16" y2="844.37" style="stroke:#606060;stroke-width:8.64"/>
	<line x1="3127.16" y1="815.54" x2="3127.16" y2="757.87" style="stroke:#606060;stroke-width:8.64"/>
	<line x1="3127.16" y1="729.16" x2="3127.16" y2="671.49" style="stroke:#606060;stroke-width:8.64"/>
	<line x1="3127.16" y1="642.65" x2="3127.16" y2="633.37" style="stroke:#606060;stroke-width:8.64"/>
	<line x1="3105.14" y1="633.37" x2="3149.19" y2="633.37" style="stroke:#606060;stroke-width:8.64"/>
	<line x1="3105.14" y1="1333.82" x2="3149.19" y2="1333.82" style="stroke:#606060;stroke-width:8.64"/>
	<line x1="3419.96" y1="1286.42" x2="3419.96" y2="1228.88" style="stroke:#606060;stroke-width:8.64"/>
	<line x1="3419.96" y1="1200.04" x2="3419.96" y2="1142.50" style="stroke:#606060;stroke-width:8.64"/>
	<line x1="3419.96" y1="1113.66" x2="3419.96" y2="1056.12" style="stroke:#606060;stroke-width:8.64"/>
	<line x1="3419.96" y1="1027.28" x2="3419.96" y2="969.74" style="stroke:#606060;stroke-width:8.64"/>
	<line x1="3419.96" y1="940.90" x2="3419.96" y2="883.36" style="stroke:#606060;stroke-width:8.64"/>
	<line x1="3419.96" y1="854.52" x2="3419.96" y2="796.97" style="stroke:#606060;stroke-width:8.64"/>
	<line x1="3419.96" y1="768.14" x2="3419.96" y2="710.47" style="stroke:#606060;stroke-width:8.64"/>
	<line x1="3419.96" y1="681.76" x2="3419.96" y2="624.09" style="stroke:#606060;stroke-width:8.64"/>
	<line x1="3419.96" y1="595.26" x2="3419.96" y2="537.71" style="stroke:#606060;stroke-width:8.64"/>
	<line x1="3419.96" y1="508.88" x2="3419.96" y2="465.56" style="stroke:#606060;stroke-width:8.64"/>
	<line x1="3397.93" y1="465.56" x2="3441.98" y2="465.56" style="stroke:#606060;stroke-width:8.64"/>
	<line x1="3397.93" y1="1286.42" x2="3441.98" y2="1286.42" style="stroke:#606060;stroke-width:8.64"/>
	<line x1="3712.75" y1="1110.20" x2="3712.75" y2="1052.65" style="stroke:#606060;stroke-width:8.64"/>
	<line x1="3712.75" y1="1023.82" x2="3712.75" y2="966.27" style="stroke:#606060;stroke-width:8.64"/>
	<line x1="3712.75" y1="937.44" x2="3712.75" y2="879.89" style="stroke:#606060;stroke-width:8.64"/>
	<line x1="3712.75" y1="851.06" x2="3712.75" y2="793.39" style="stroke:#606060;stroke-width:8.64"/>
	<line x1="3712.75" y1="764.68" x2="3712.75" y2="707.01" style="stroke:#606060;stroke-width:8.64"/>
	<line x1="3712.75" y1="678.17" x2="3712.75" y2="620.63" style="stroke:#606060;stroke-width:8.64"/>
	<line x1="3712.75" y1="591.79" x2="3712.75" y2="534.25" style="stroke:#606060;stroke-width:8.64"/>
	<line x1="3712.75" y1="505.41" x2="3712.75" y2="447.87" style="stroke:#606060;stroke-width:8.64"/>
	<line x1="3712.75" y1="419.03" x2="3712.75" y2="361.49" style="stroke:#606060;stroke-width:8.64"/>
	<line x1="3712.75" y1="332.65" x2="3712.75" y2="275.10" style="stroke:#606060;stroke-width:8.64"/>
	<line x1="3712.75" y1="246.27" x2="3712.75" y2="188.72" style="stroke:#606060;stroke-width:8.64"/>
	<line x1="3690.72" y1="164.22" x2="3734.78" y2="164.22" style="stroke:#606060;stroke-width:8.64"/>
	<line x1="3690.72" y1="1110.20" x2="3734.78" y2="1110.20" style="stroke:#606060;stroke-width:8.64"/>
	<circle cx="492.03" cy="1701.74" r="26.35" style="fill:#606060"/>
	<circle cx="492.03" cy="1701.74" r="22.03" style="fill:none;stroke:#606060;stroke-width:8.64"/>
	<circle cx="784.82" cy="1564.00" r="26.35" style="fill:#606060"/>
	<circle cx="784.82" cy="1564.00" r="22.03" style="fill:none;stroke:#606060;stroke-width:8.64"/>
	<circle cx="1077.62" cy="1417.72" r="26.35" style="fill:#606060"/>
	<circle cx="1077.62" cy="1417.72" r="22.03" style="fill:none;stroke:#606060;stroke-width:8.64"/>
	<circle cx="1370.41" cy="1393.22" r="26.35" style="fill:#606060"/>
	<circle cx="1370.41" cy="1393.22" r="22.03" style="fill:none;stroke:#606060;stroke-width:8.64"/>
	<circle cx="1663.20" cy="1300.78" r="26.35" style="fill:#606060"/>
	<circle cx="1663.20" cy="1300.78" r="22.03" style="fill:none;stroke:#606060;stroke-width:8.64"/>
	<circle cx="1955.99" cy="1236.92" r="26.35" style="fill:#606060"/>
	<circle cx="1955.99" cy="1236.92" r="22.03" style="fill:none;stroke:#606060;stroke-width:8.64"/>
	<circle cx="2248.79" cy="1334.93" r="26.35" style="fill:#606060"/>
	<circle cx="2248.79" cy="1334.93" r="22.03" style="fill:none;stroke:#606060;stroke-width:8.64"/>
	<circle cx="2541.58" cy="1228.13" r="26.35" style="fill:#606060"/>
	<circle cx="2541.58" cy="1228.13" r="22.03" style="fill:none;stroke:#606060;stroke-width:8.64"/>
	<circle cx="2834.25" cy="1128.39" r="26.35" style="fill:#606060"/>
	<circle cx="2834.25" cy="1128.39" r="22.03" style="fill:none;stroke:#606060;stroke-width:8.64"/>
	<circle cx="3127.04" cy="983.72" r="26.35" style="fill:#606060"/>
	<circle cx="3127.04" cy="983.72" r="22.03" style="fill:none;stroke:#606060;stroke-width:8.64"/>
	<circle cx="3419.83" cy="876.05" r="26.35" style="fill:#606060"/>
	<circle cx="3419.83" cy="876.05" r="22.03" style="fill:none;stroke:#606060;stroke-width:8.64"/>
	<circle cx="3712.62" cy="637.21" r="26.35" style="fill:#606060"/>
	<circle cx="3712.62" cy="637.21" r="22.03" style="fill:none;stroke:#606060;stroke-width:8.64"/>
	<path d=" M492.03 1701.74 L784.82 1564.00 L1077.62 1417.72 L1370.41 1393.22 L1663.20 1300.78 L1955.99 1236.92 L2248.79 1334.93 L2541.58 1228.13 L2834.25 1128.39 L3127.04 983.72 L3419.83 876.05 L3712.62 637.21" stroke-linejoin="round" style="fill:none;stroke:#808080;stroke-width:8.64"/>
	<line x1="345.76" y1="2534.23" x2="345.76" y2="100.86" style="stroke:#000000;stroke-width:5.76"/>
	<line x1="345.76" y1="2470.87" x2="305.79" y2="2470.87" style="stroke:#000000;stroke-width:5.76"/>
	<text x="263.18" y="2470.87" style="font-family:'Helvetica';font-size:74.99px;fill:#000000" transform="rotate(-90 263.18,2470.87)" text-anchor="middle">-.2</text>
	<line x1="345.76" y1="2361.72" x2="305.79" y2="2361.72" style="stroke:#000000;stroke-width:5.76"/>
	<text x="263.18" y="2361.72" style="font-family:'Helvetica';font-size:74.99px;fill:#000000" transform="rotate(-90 263.18,2361.72)" text-anchor="middle">-.18</text>
	<line x1="345.76" y1="2252.69" x2="305.79" y2="2252.69" style="stroke:#000000;stroke-width:5.76"/>
	<text x="263.18" y="2252.69" style="font-family:'Helvetica';font-size:74.99px;fill:#000000" transform="rotate(-90 263.18,2252.69)" text-anchor="middle">-.16</text>
	<line x1="345.76" y1="2143.54" x2="305.79" y2="2143.54" style="stroke:#000000;stroke-width:5.76"/>
	<text x="263.18" y="2143.54" style="font-family:'Helvetica';font-size:74.99px;fill:#000000" transform="rotate(-90 263.18,2143.54)" text-anchor="middle">-.14</text>
	<line x1="345.76" y1="2034.51" x2="305.79" y2="2034.51" style="stroke:#000000;stroke-width:5.76"/>
	<text x="263.18" y="2034.51" style="font-family:'Helvetica';font-size:74.99px;fill:#000000" transform="rotate(-90 263.18,2034.51)" text-anchor="middle">-.12</text>
	<line x1="345.76" y1="1925.36" x2="305.79" y2="1925.36" style="stroke:#000000;stroke-width:5.76"/>
	<text x="263.18" y="1925.36" style="font-family:'Helvetica';font-size:74.99px;fill:#000000" transform="rotate(-90 263.18,1925.36)" text-anchor="middle">-.1</text>
	<line x1="345.76" y1="1816.21" x2="305.79" y2="1816.21" style="stroke:#000000;stroke-width:5.76"/>
	<text x="263.18" y="1816.21" style="font-family:'Helvetica';font-size:74.99px;fill:#000000" transform="rotate(-90 263.18,1816.21)" text-anchor="middle">-.08</text>
	<line x1="345.76" y1="1707.18" x2="305.79" y2="1707.18" style="stroke:#000000;stroke-width:5.76"/>
	<text x="263.18" y="1707.18" style="font-family:'Helvetica';font-size:74.99px;fill:#000000" transform="rotate(-90 263.18,1707.18)" text-anchor="middle">-.06</text>
	<line x1="345.76" y1="1598.03" x2="305.79" y2="1598.03" style="stroke:#000000;stroke-width:5.76"/>
	<text x="263.18" y="1598.03" style="font-family:'Helvetica';font-size:74.99px;fill:#000000" transform="rotate(-90 263.18,1598.03)" text-anchor="middle">-.04</text>
	<line x1="345.76" y1="1489.01" x2="305.79" y2="1489.01" style="stroke:#000000;stroke-width:5.76"/>
	<text x="263.18" y="1489.01" style="font-family:'Helvetica';font-size:74.99px;fill:#000000" transform="rotate(-90 263.18,1489.01)" text-anchor="middle">-.02</text>
	<line x1="345.76" y1="1379.86" x2="305.79" y2="1379.86" style="stroke:#000000;stroke-width:5.76"/>
	<text x="263.18" y="1379.86" style="font-family:'Helvetica';font-size:74.99px;fill:#000000" transform="rotate(-90 263.18,1379.86)" text-anchor="middle">0</text>
	<line x1="345.76" y1="1270.70" x2="305.79" y2="1270.70" style="stroke:#000000;stroke-width:5.76"/>
	<text x="263.18" y="1270.70" style="font-family:'Helvetica';font-size:74.99px;fill:#000000" transform="rotate(-90 263.18,1270.70)" text-anchor="middle">.02</text>
	<line x1="345.76" y1="1161.68" x2="305.79" y2="1161.68" style="stroke:#000000;stroke-width:5.76"/>
	<text x="263.18" y="1161.68" style="font-family:'Helvetica';font-size:74.99px;fill:#000000" transform="rotate(-90 263.18,1161.68)" text-anchor="middle">.04</text>
	<line x1="345.76" y1="1052.53" x2="305.79" y2="1052.53" style="stroke:#000000;stroke-width:5.76"/>
	<text x="263.18" y="1052.53" style="font-family:'Helvetica';font-size:74.99px;fill:#000000" transform="rotate(-90 263.18,1052.53)" text-anchor="middle">.06</text>
	<line x1="345.76" y1="943.50" x2="305.79" y2="943.50" style="stroke:#000000;stroke-width:5.76"/>
	<text x="263.18" y="943.50" style="font-family:'Helvetica';font-size:74.99px;fill:#000000" transform="rotate(-90 263.18,943.50)" text-anchor="middle">.08</text>
	<line x1="345.76" y1="834.35" x2="305.79" y2="834.35" style="stroke:#000000;stroke-width:5.76"/>
	<text x="263.18" y="834.35" style="font-family:'Helvetica';font-size:74.99px;fill:#000000" transform="rotate(-90 263.18,834.35)" text-anchor="middle">.1</text>
	<line x1="345.76" y1="725.20" x2="305.79" y2="725.20" style="stroke:#000000;stroke-width:5.76"/>
	<text x="263.18" y="725.20" style="font-family:'Helvetica';font-size:74.99px;fill:#000000" transform="rotate(-90 263.18,725.20)" text-anchor="middle">.12</text>
	<line x1="345.76" y1="616.17" x2="305.79" y2="616.17" style="stroke:#000000;stroke-width:5.76"/>
	<text x="263.18" y="616.17" style="font-family:'Helvetica';font-size:74.99px;fill:#000000" transform="rotate(-90 263.18,616.17)" text-anchor="middle">.14</text>
	<line x1="345.76" y1="507.02" x2="305.79" y2="507.02" style="stroke:#000000;stroke-width:5.76"/>
	<text x="263.18" y="507.02" style="font-family:'Helvetica';font-size:74.99px;fill:#000000" transform="rotate(-90 263.18,507.02)" text-anchor="middle">.16</text>
	<line x1="345.76" y1="397.99" x2="305.79" y2="397.99" style="stroke:#000000;stroke-width:5.76"/>
	<text x="263.18" y="397.99" style="font-family:'Helvetica';font-size:74.99px;fill:#000000" transform="rotate(-90 263.18,397.99)" text-anchor="middle">.18</text>
	<line x1="345.76" y1="288.84" x2="305.79" y2="288.84" style="stroke:#000000;stroke-width:5.76"/>
	<text x="263.18" y="288.84" style="font-family:'Helvetica';font-size:74.99px;fill:#000000" transform="rotate(-90 263.18,288.84)" text-anchor="middle">.2</text>
	<text x="176.68" y="1317.48" style="font-family:'Helvetica';font-size:79.94px;fill:#000000" transform="rotate(-90 176.68,1317.48)" text-anchor="middle">政策动态经济效应</text>
	<line x1="345.76" y1="2534.23" x2="3859.02" y2="2534.23" style="stroke:#000000;stroke-width:5.76"/>
	<line x1="492.15" y1="2534.23" x2="492.15" y2="2574.20" style="stroke:#000000;stroke-width:5.76"/>
	<text x="492.15" y="2646.69" style="font-family:'Helvetica';font-size:74.99px;fill:#000000" text-anchor="middle">-5</text>
	<line x1="784.95" y1="2534.23" x2="784.95" y2="2574.20" style="stroke:#000000;stroke-width:5.76"/>
	<text x="784.95" y="2646.69" style="font-family:'Helvetica';font-size:74.99px;fill:#000000" text-anchor="middle">-4</text>
	<line x1="1077.74" y1="2534.23" x2="1077.74" y2="2574.20" style="stroke:#000000;stroke-width:5.76"/>
	<text x="1077.74" y="2646.69" style="font-family:'Helvetica';font-size:74.99px;fill:#000000" text-anchor="middle">-3</text>
	<line x1="1370.53" y1="2534.23" x2="1370.53" y2="2574.20" style="stroke:#000000;stroke-width:5.76"/>
	<text x="1370.53" y="2646.69" style="font-family:'Helvetica';font-size:74.99px;fill:#000000" text-anchor="middle">-2</text>
	<line x1="1663.20" y1="2534.23" x2="1663.20" y2="2574.20" style="stroke:#000000;stroke-width:5.76"/>
	<text x="1663.20" y="2646.69" style="font-family:'Helvetica';font-size:74.99px;fill:#000000" text-anchor="middle">0</text>
	<line x1="1955.99" y1="2534.23" x2="1955.99" y2="2574.20" style="stroke:#000000;stroke-width:5.76"/>
	<text x="1955.99" y="2646.69" style="font-family:'Helvetica';font-size:74.99px;fill:#000000" text-anchor="middle">1</text>
	<line x1="2248.79" y1="2534.23" x2="2248.79" y2="2574.20" style="stroke:#000000;stroke-width:5.76"/>
	<text x="2248.79" y="2646.69" style="font-family:'Helvetica';font-size:74.99px;fill:#000000" text-anchor="middle">2</text>
	<line x1="2541.58" y1="2534.23" x2="2541.58" y2="2574.20" style="stroke:#000000;stroke-width:5.76"/>
	<text x="2541.58" y="2646.69" style="font-family:'Helvetica';font-size:74.99px;fill:#000000" text-anchor="middle">3</text>
	<line x1="2834.37" y1="2534.23" x2="2834.37" y2="2574.20" style="stroke:#000000;stroke-width:5.76"/>
	<text x="2834.37" y="2646.69" style="font-family:'Helvetica';font-size:74.99px;fill:#000000" text-anchor="middle">4</text>
	<line x1="3127.16" y1="2534.23" x2="3127.16" y2="2574.20" style="stroke:#000000;stroke-width:5.76"/>
	<text x="3127.16" y="2646.69" style="font-family:'Helvetica';font-size:74.99px;fill:#000000" text-anchor="middle">5</text>
	<line x1="3419.96" y1="2534.23" x2="3419.96" y2="2574.20" style="stroke:#000000;stroke-width:5.76"/>
	<text x="3419.96" y="2646.69" style="font-family:'Helvetica';font-size:74.99px;fill:#000000" text-anchor="middle">6</text>
	<line x1="3712.75" y1="2534.23" x2="3712.75" y2="2574.20" style="stroke:#000000;stroke-width:5.76"/>
	<text x="3712.75" y="2646.69" style="font-family:'Helvetica';font-size:74.99px;fill:#000000" text-anchor="middle">7</text>
	<text x="2102.39" y="2735.17" style="font-family:'Helvetica';font-size:79.94px;fill:#000000" text-anchor="middle">政策时点</text>
</svg>